<svg xmlns="http://www.w3.org/2000/svg" width="865.76" height="682.89" viewBox="0 0 865.76 682.89"><path d="M843,412.1q-1.55,6.19-3.4,12.28-1.41,4.67-3,9.23c-17.6,51.46-48,93.15-48,93.15l-88.89-.38L99.93,523.8C39.46,458.72,64.84,248.92,64.84,248.92c2.93-144.15,128.29-80.74,128.29-80.74C282.08,218.09,352,152.28,352,152.28,484.45,59.31,548.43,70,548.43,70c106.79,0,148,136.35,148,136.35a56.48,56.48,0,0,0,18.81,27.14,69.43,69.43,0,0,0,30.51,13.66c37.86,8.56,62.58,30.41,77.45,49.07,1.28,1.61,2.49,3.2,3.63,4.75,10.59,14.43,15,25.89,15,25.89C851.85,353.59,850,383.61,843,412.1Z" fill="#0071f2"/><path d="M843,412.1q-1.55,6.19-3.4,12.28-1.41,4.67-3,9.23c-17.6,51.46-48,93.15-48,93.15l-88.89-.38L99.93,523.8C39.46,458.72,64.84,248.92,64.84,248.92c2.93-144.15,128.29-80.74,128.29-80.74C282.08,218.09,352,152.28,352,152.28,484.45,59.31,548.43,70,548.43,70c106.79,0,148,136.35,148,136.35a56.48,56.48,0,0,0,18.81,27.14,69.43,69.43,0,0,0,30.51,13.66c37.86,8.56,62.58,30.41,77.45,49.07,1.28,1.61,2.49,3.2,3.63,4.75,10.59,14.43,15,25.89,15,25.89C851.85,353.59,850,383.61,843,412.1Z" fill="#fff" opacity="0.7"/><path d="M843,412.1q-1.55,6.19-3.4,12.28-1.41,4.67-3,9.23L805.3,448.89,495.88,484,478.77,486,371,378.19s55.6-21,105.43-44.69h0c15.36-7.3,30.18-14.84,42.65-22.09,0,0,58-55,186.4,15.16l30.94,19.24h0Z" fill="#909193"/><path d="M839.55,424.38q-1.41,4.67-3,9.23c-17.6,51.46-48,93.15-48,93.15l-88.89-.38L495.88,484l-19.47-4,8.46-15.55C614.81,431.45,824.73,424.81,839.55,424.38Z" fill="#0071f2"/><path d="M839.55,424.38q-1.41,4.67-3,9.23c-17.6,51.46-48,93.15-48,93.15l-88.89-.38L495.88,484l-19.47-4,8.46-15.55C614.81,431.45,824.73,424.81,839.55,424.38Z" fill="#fff" opacity="0.3"/><path d="M478.77,451.18l-77,24.94H152.29L151,374.89s20.56-4.41,54.51-27.14a137.25,137.25,0,0,0,20.31-16.63c10.42-10.32,37-28.46,76.51.58L352,365.33h0Z" fill="#9ea0a3"/><path d="M83.56,418.75s71.75-45.81,145.56-15.57c0,0,101.25,53.88,184,51.38,0,0,54.76-6.24,71.71,9.87L476.41,480l-390,60.64Z" fill="#0071f2"/><path d="M83.56,418.75s71.75-45.81,145.56-15.57c0,0,101.25,53.88,184,51.38,0,0,54.76-6.24,71.71,9.87L476.41,480l-390,60.64Z" fill="#fff" opacity="0.3"/><path d="M244.8,257.93a19.59,19.59,0,0,1-8.17,11.45c-4.25,2.77-10.62,4.62-19.87,2.43h0c.33.33,38.59,39.33-26.6,67.1-3,1.3-26.43,2.78-35.88-8.53a230.62,230.62,0,0,1,9.21-28.95c3.48-9,6.3-14.8,6.3-14.8l-4.7-4.22c-3.89,7.45-7.67,10.44-10,11.64a6.44,6.44,0,0,1-2.33.8c-9.39-2.35,12.33-43.3,12.33-43.3l-4.39-2.25-8.23-4.21L138.23,273c-6.6,13.21-8.95,12.62-8.95,12.62-2.64-4.11,6.58-52.11,6.58-52.11H129l-4.69,23.2c-1.62,14.09-4.23,15.19-4.23,15.19-5.54,1.84,0-27.08,0-27.08h-8.69l-2.1,18.93c-3,19.23-7.88,18.94-7.88,18.94-2,2-6.15-1.05-10.32-5.22a134.77,134.77,0,0,1-11.55-13.72l-5,6.57,15.82,25c6.64,11.25,7.93,29.56,8,41.62,0,0-12.75,9.4-28.63-12.59,0,0-4.52-7.88,0-15.74,0,0-16.77,5.65-18.68-8.59,0,0-38,1-33.76-40.22,0,0,2.35-21.29,16.15-28.33,0,0-21.29-11.6-14.24-43.6,0,0,4.6-21.07,26.33-21.71.55,0,1.12,0,1.7,0,0,0,9.69,1.76,6.17-7.78,0,0-8.07-17.39,4.26-22.5,0,0,10.12-6.71,26.56,5.47,0,0,2.06-17.32,22-18.49,0,0,16.59-4.69,26.2,15.78,0,0,12-23.89,37.79-19.78a41.86,41.86,0,0,1,34.37,49.49A58.89,58.89,0,0,1,199.44,183c.22-.11,21.11-10.73,36.89.59a12.94,12.94,0,0,1-1.84,22.11l-.41.2S255.64,216.86,244.8,257.93Z" fill="#0071f2"/><path d="M244.8,257.93a19.59,19.59,0,0,1-8.17,11.45c-4.25,2.77-10.62,4.62-19.87,2.43h0c.33.33,38.59,39.33-26.6,67.1-3,1.3-26.43,2.78-35.88-8.53a230.62,230.62,0,0,1,9.21-28.95c3.48-9,6.3-14.8,6.3-14.8l-4.7-4.22c-3.89,7.45-7.67,10.44-10,11.64a6.44,6.44,0,0,1-2.33.8c-9.39-2.35,12.33-43.3,12.33-43.3l-4.39-2.25-8.23-4.21L138.23,273c-6.6,13.21-8.95,12.62-8.95,12.62-2.64-4.11,6.58-52.11,6.58-52.11H129l-4.69,23.2c-1.62,14.09-4.23,15.19-4.23,15.19-5.54,1.84,0-27.08,0-27.08h-8.69l-2.1,18.93c-3,19.23-7.88,18.94-7.88,18.94-2,2-6.15-1.05-10.32-5.22a134.77,134.77,0,0,1-11.55-13.72l-5,6.57,15.82,25c6.64,11.25,7.93,29.56,8,41.62,0,0-12.75,9.4-28.63-12.59,0,0-4.52-7.88,0-15.74,0,0-16.77,5.65-18.68-8.59,0,0-38,1-33.76-40.22,0,0,2.35-21.29,16.15-28.33,0,0-21.29-11.6-14.24-43.6,0,0,4.6-21.07,26.33-21.71.55,0,1.12,0,1.7,0,0,0,9.69,1.76,6.17-7.78,0,0-8.07-17.39,4.26-22.5,0,0,10.12-6.71,26.56,5.47,0,0,2.06-17.32,22-18.49,0,0,16.59-4.69,26.2,15.78,0,0,12-23.89,37.79-19.78a41.86,41.86,0,0,1,34.37,49.49A58.89,58.89,0,0,1,199.44,183c.22-.11,21.11-10.73,36.89.59a12.94,12.94,0,0,1-1.84,22.11l-.41.2S255.64,216.86,244.8,257.93Z" fill="#fff" opacity="0.3"/><path d="M216.76,271.81h0c8.51,17-11.86,26.37-11.86,26.37C181.58,315.47,164,301.5,164,301.5l-.49-.06L93.9,293,79.52,263.74c-9.4-7.93-4.41-23.19-4.41-23.19,4.7-17.62-25.54-34.5-25.54-34.5-18.26-11.39-4.19-39.64-4-39.91.55,0,1.12,0,1.7,0,0,0,9.69,1.76,6.17-7.78C74.82,141,94.2,165,94.2,165c6.45-14.67,15.63-14.82,15.63-14.82,12.84-5.58,22.57,10.77,22.57,10.77,12.8-10.36,21.68-10.77,21.68-10.77,36.85.29,40.66,54.46,40.66,54.46,31.42,10.71,35.09,36,35.09,36C237.46,266.09,216.76,271.81,216.76,271.81Z" fill="#fff" opacity="0.3"/><path d="M154.28,330.39c-2.55,10.67-4.17,21.88-3.43,31.84L152.67,506a318.43,318.43,0,0,0-52.74,17.77L98.19,459,97,413s1.79-22.56-14.51-31.81c0,0-6-4.26-12.62-5.28,0,0-1.91-19.67,10-28.77,0,0,16.79,14.8,18.16,1.89,0,0,.41-4.95.38-12.09,0-12.06-1.33-30.37-8-41.62l-15.82-25,5-6.57a134.77,134.77,0,0,0,11.55,13.72c4.17,4.17,8.35,7.19,10.32,5.22,0,0,4.9.29,7.88-18.94l2.1-18.93h8.69s-5.54,28.92,0,27.08c0,0,2.61-1.1,4.23-15.19L129,233.5h6.88s-9.22,48-6.58,52.11c0,0,2.35.59,8.95-12.62l14.24-27.89,8.23,4.21,4.39,2.25s-21.72,40.95-12.33,43.3a6.44,6.44,0,0,0,2.33-.8c2.33-1.2,6.11-4.19,10-11.64l4.7,4.22A245.27,245.27,0,0,0,154.28,330.39Z" fill="#3f4347"/><path d="M805.3,546.48c0,36.89-162.72,66.79-363.44,66.79S78.42,583.37,78.42,546.48c0-26.77,85.74-49.87,209.51-60.52,46.74-4,98.91-6.26,153.93-6.26,25.25,0,49.89.47,73.69,1.37C680.94,487.33,805.3,514.24,805.3,546.48Z" fill="#0071f2"/><path d="M805.3,546.48c0,36.89-162.72,66.79-363.44,66.79S78.42,583.37,78.42,546.48c0-26.77,85.74-49.87,209.51-60.52,46.74-4,98.91-6.26,153.93-6.26,25.25,0,49.89.47,73.69,1.37C680.94,487.33,805.3,514.24,805.3,546.48Z" fill="#fff" opacity="0.8"/><path d="M90.6,534.15l-8.51,6.46S25.72,506.56,26.46,448c0,0-1.6-31.35,16.27-32.86l.43,0c1-.11,8,.35,11.46,35.2q.45,4.63,1.29,9.23C58.91,476,69.19,522.84,90.6,534.15Z" fill="#0071f2"/><path d="M82.09,532.39s-47-40.22-41.69-100c0,0,2.79,29.94,9.4,39.34,0,0-3-19.26-1-25.92,0,0,3.35,45.29,24.93,73l9.84,12.33Z" opacity="0.2"/><path d="M98,532.39l-7.37,1.76s-28.77-9.83-38.55-101.72a95,95,0,0,1-.16-24.56c1.56-10.9,6-21.73,17.28-23.73,0,0,20.7-5.43,17.47,36.55,0,0-1.69,43.56,3,78.68C91.4,512.44,94,524.35,98,532.39Z" fill="#0071f2"/><path d="M98,532.39l-7.37,1.76s-28.77-9.83-38.55-101.72a95,95,0,0,1-.16-24.56c1.56-10.9,6-21.73,17.28-23.73,0,0,20.7-5.43,17.47,36.55,0,0-1.69,43.56,3,78.68C91.4,512.44,94,524.35,98,532.39Z" opacity="0.2"/><path d="M98,532.39l-7.37,1.76s-28.77-9.83-38.55-101.72a95,95,0,0,1-.16-24.56s5.53,55.86,17.9,71.83c0,0-10.8-40.88-2.37-71.83,0,0-2.36,51.86,8.23,79.62a13.29,13.29,0,0,0,4.61,6,88,88,0,0,0,9.39,5.85C91.4,512.44,94,524.35,98,532.39Z" opacity="0.2"/><path d="M114.27,244.81s-1.87,42.12-9.51,45.21-13.69-12.56-13.69-12.56c4.17,4.17,8.35,7.19,10.32,5.22,0,0,4.9.29,7.88-18.94l2.1-18.93Z" fill="#2e3135"/><path d="M132.43,233.5a269,269,0,0,1-5.5,28.92c-4.26,17.91-6.87,9.47-6.87,9.47s2.61-1.1,4.23-15.19L129,233.5Z" fill="#2e3135"/><path d="M160.7,249.31l-14.58,24.57c-12.36,18.35-16.84,11.73-16.84,11.73s2.35.59,8.95-12.62l14.24-27.89Z" fill="#2e3135"/><path d="M150.85,362.23,152.67,506a318.43,318.43,0,0,0-52.74,17.77L98.19,459c56.11-4,44.74-53.93,44.74-53.93-.88-61.65,12.16-111,12.16-111,2.33-1.2,6.11-4.19,10-11.64l4.7,4.22S148.51,330.68,150.85,362.23Z" fill="#2e3135"/><path d="M148.21,306.75a132.43,132.43,0,0,0-6.46,39.63" fill="#2e3135"/><path d="M114.27,341.29s40.77,48.4,0,73.79" fill="none" stroke="#2e3135" stroke-miterlimit="10"/><path d="M114.27,438.05c.66,18.25,1.76,36.54,3.62,54.71l.38,3.64-.42-3.64c-2-18.15-3.09-36.46-3.58-54.71Z" fill="#232528"/><path d="M132.39,461.33a241.67,241.67,0,0,0,5,42l-.54-2.59c-.09-.46-.31-1.5-.4-1.94a208.28,208.28,0,0,1-4-37.43Z" fill="#232528"/><path d="M102,391.74s5.28-49.3,16.29-36.54c0,0,20.86,28.67,2.31,42.07a6.19,6.19,0,0,1-3.28,1.18c-3,.13-7.56-1.92-7-16.11,0,0-.86-21.13,4.78-9.9,0,0,3.59,4.18,3.15,15.11" fill="none" stroke="#2e3135" stroke-miterlimit="10"/><path d="M515.55,481.07h0c-23.8-.9-48.44-1.37-73.69-1.37-55,0-107.19,2.24-153.93,6.26l.2-.54s-5.49-20.19,40.6-23.65a123.6,123.6,0,0,1,28.11,1.14c13.44,2.07,43.29,4,82-9.53C438.84,453.38,485.09,432.42,515.55,481.07Z" fill="#0071f2"/><path d="M515.55,481.07h0c-23.8-.9-48.44-1.37-73.69-1.37-55,0-107.19,2.24-153.93,6.26l.2-.54s-5.49-20.19,40.6-23.65a123.6,123.6,0,0,1,28.11,1.14c13.44,2.07,43.29,4,82-9.53C438.84,453.38,485.09,432.42,515.55,481.07Z" fill="#fff" opacity="0.4"/><path d="M352,365.33c-49-22.73-43.06-2.95-43.06-2.95-.44,11-11.08,2.61-11.08,2.61-24.73-15-35.73,5.94-35.73,5.94-11.59,17.64-28.69,1.76-28.69,1.76-7.54-15.82-26.17-2.35-26.17-2.35-20.06,9.43-56.26,4.55-56.26,4.55s20.56-4.41,54.51-27.14a137.25,137.25,0,0,0,20.31-16.63c10.42-10.32,37-28.46,76.51.58Z" fill="#fff"/><path d="M736.41,345.81h0c-41.52,26-89.91-14.39-89.91-14.39-23.74-13.75-44.31-15-59.32-12.57-2.17.35-4.21.78-6.14,1.26-12.66,3.15-20,8.47-20,8.47-17.1,7.7-25.66,6-29.41,4a36.67,36.67,0,0,0-17.67-4c-16,.39-37.19,4.83-37.53,4.9,15.36-7.3,30.18-14.84,42.65-22.09,0,0,58-55,186.4,15.16Z" fill="#fff"/><rect x="763.68" y="326.86" width="24.94" height="140.57" fill="#3f4347"/><polygon points="771.41 467.43 763.68 467.43 763.68 326.86 769.19 326.86 771.41 467.43" fill="#2e3135"/><path d="M784.53,344.77c.3,8.48.3,17.08,0,25.57-.31-8.49-.3-17.09,0-25.57Z" fill="#2e3135"/><path d="M776.15,357.55a145.37,145.37,0,0,1,0,16.17,145.37,145.37,0,0,1,0-16.17Z" fill="#2e3135"/><path d="M781.31,381.28c.3,6.84.3,13.78,0,20.62-.31-6.84-.3-13.78,0-20.62Z" fill="#2e3135"/><path d="M775.86,401.9c.17,2.19.21,4.47.22,6.67s-.05,4.48-.22,6.67c-.18-2.19-.21-4.47-.22-6.67s0-4.48.22-6.67Z" fill="#2e3135"/><path d="M777.74,424.36a152.51,152.51,0,0,1,0,16.7,155.05,155.05,0,0,1,0-16.7Z" fill="#2e3135"/><path d="M784.53,416.73c.3,6.5.3,13.1,0,19.61-.31-6.51-.3-13.11,0-19.61Z" fill="#2e3135"/><path d="M715.27,233.49a69.43,69.43,0,0,0,30.51,13.66c37.86,8.56,62.58,30.41,77.45,49.07,1.28,1.61,2.49,3.2,3.63,4.75-6.4,2.15-16.73,2.21-16.73,2.21-9.77.84,4.78,15.17,4.78,15.17,6.9,10.42-6.6,16-6.6,16-24.66,9.68-30.53-6.17-30.53-6.17-20.41,12.48-33.91,6.17-33.91,6.17-11.6-5.44-9.84-21.88-9.84-21.88-15.7-2.05-13.06-17.61-13.06-17.61C701.89,289.43,718,272,718,272c6.61-6.9-5.72-8.57-5.72-8.57a16.55,16.55,0,0,1-6.15-3.75l-.32-.34c-.15-.17-.29-.34-.43-.52s-.18-.23-.26-.35a9.69,9.69,0,0,1-.68-1.08l-.19-.37-.17-.38-.15-.38c-.07-.19-.14-.38-.2-.57a1.8,1.8,0,0,1,0-.19,7.2,7.2,0,0,1-.19-.77l0-.15-.06-.38,0-.18,0-.26,0-.3v-.07c0-.08,0-.16,0-.23v-.18a1.62,1.62,0,0,1,0-.22v-.62a.28.28,0,0,1,0-.09,5.07,5.07,0,0,1,0-.55c0-.17,0-.34,0-.51s.05-.34.07-.51.07-.41.11-.62a1.77,1.77,0,0,1,0-.2,1.18,1.18,0,0,1,0-.2l.09-.41c0-.07,0-.14,0-.21s0-.13.05-.2l.06-.2.05-.21.12-.4a1.72,1.72,0,0,0,.07-.21c.1-.33.22-.67.34-1l.08-.2.15-.4.15-.36.18-.42.17-.39c.15-.32.3-.65.46-1l.19-.38.2-.38.28-.52c.37-.68.76-1.34,1.15-2l.21-.33,0-.05.26-.39.15-.24c.07-.09.13-.19.19-.28l0-.06.16-.24.34-.49.13-.18.49-.67.12-.16.13-.18.17-.22L710,237l.1-.13c.67-.86,1.24-1.55,1.64-2l.09-.1c.26-.31,2.1-2.39,2.14-2.44" fill="#0071f2"/><path d="M814.91,318.35c6.9,10.42-6.6,16-6.6,16-24.66,9.68-30.53-6.17-30.53-6.17-20.41,12.48-33.91,6.17-33.91,6.17-11.6-5.44-9.84-21.88-9.84-21.88-15.7-2.05-13.06-17.61-13.06-17.61C701.89,289.43,718,272,718,272c6.61-6.9-5.72-8.57-5.72-8.57a16.55,16.55,0,0,1-6.15-3.75l-.32-.34c-.15-.17-.29-.34-.43-.52s-.18-.23-.26-.35a9.69,9.69,0,0,1-.68-1.08l-.19-.37-.17-.38-.15-.38c-.07-.19-.14-.38-.2-.57a1.8,1.8,0,0,1,0-.19,7.2,7.2,0,0,1-.19-.77l0-.15-.06-.38,0-.18,0-.26,0-.3v-.07c0-.08,0-.16,0-.23v-.18a1.62,1.62,0,0,1,0-.22v-.62a.28.28,0,0,1,0-.09,5.07,5.07,0,0,1,0-.55c0-.17,0-.34,0-.51s.05-.34.07-.51.07-.41.11-.62a1.77,1.77,0,0,1,0-.2,1.18,1.18,0,0,1,0-.2l.09-.41c0-.07,0-.14,0-.21s0-.13.05-.2l.06-.2.05-.21.12-.4a1.72,1.72,0,0,0,.07-.21c.1-.33.22-.67.34-1l.08-.2.15-.4.15-.36.18-.42.17-.39c.15-.32.3-.65.46-1l.19-.38.2-.38.28-.52c.37-.68.76-1.34,1.15-2l.21-.33,0-.05.26-.39.15-.24c.07-.09.13-.19.19-.28l0-.06.16-.24.34-.49.13-.18.49-.67.12-.16.13-.18.17-.22L710,237l.1-.13c.67-.86,1.24-1.55,1.64-2l.09-.1c.26-.31.44-.49.48-.55h0s1.65-1.88,1.65-1.88l1.32,1.13a69.43,69.43,0,0,0,30.51,13.66c37.86,8.56,62.58,30.41,77.45,49.07,1.28,1.61,2.49,3.2,3.63,4.75-6.4,2.15-16.73,2.21-16.73,2.21C800.36,304,814.91,318.35,814.91,318.35Z" fill="#fff" opacity="0.3"/><path d="M823.28,296.22c-5.14,2.27-11.55,1.87-11.55,1.87-7.34,0-7.79,5.09-7.79,5.09-2.94,16.25-8.36,14.58-8.36,14.58C786,319.52,779,309.39,779,309.39c-12.48,13.95-24.09,12.4-24.09,12.4-19-2.71-7-32-6.89-32.21-22,9.83-26.1,1.32-26.1,1.32-7.75-6.6,8.35-27.75,8.35-27.75,5.72-14.23-2.65-12.77-2.65-12.77-18.2,1-21.19-7.68-21.23-7.81.37-.68.76-1.34,1.15-2l.21-.33,0-.05.26-.39.15-.24c.07-.09.13-.19.19-.28a.21.21,0,0,0,0-.06l.17-.24.34-.49.13-.18c.16-.23.33-.45.49-.67l.12-.16.13-.18a1.77,1.77,0,0,0,.16-.22A.27.27,0,0,0,710,237a1.47,1.47,0,0,1,.1-.13c.66-.86,1.24-1.55,1.64-2l.09-.1c.26-.31.43-.49.48-.55h0s1.65-1.88,1.65-1.88l1.32,1.13a69.37,69.37,0,0,0,30.5,13.66C783.69,255.71,808.4,277.56,823.28,296.22Z" fill="#fff" opacity="0.3"/><circle cx="759.65" cy="308.29" r="5.06" fill="#fff" opacity="0.3"/><circle cx="729.26" cy="283.63" r="5.06" fill="#fff" opacity="0.3"/><circle cx="770.22" cy="309.46" r="3.01" fill="#fff" opacity="0.3"/><circle cx="732.42" cy="274.6" r="3.08" fill="#fff" opacity="0.3"/><circle cx="183.81" cy="198.35" r="6.39" fill="#fff" opacity="0.3"/><circle cx="181.61" cy="182.35" r="3.01" fill="#fff" opacity="0.3"/><path d="M530.88,471.05H535a0,0,0,0,1,0,0v97.34a1.61,1.61,0,0,1-1.61,1.61h-.92a1.61,1.61,0,0,1-1.61-1.61V471.05A0,0,0,0,1,530.88,471.05Z" fill="#2f2e41"/><path d="M575.94,471.05h4.14a0,0,0,0,1,0,0v97.34a1.61,1.61,0,0,1-1.61,1.61h-.92a1.61,1.61,0,0,1-1.61-1.61V471.05A0,0,0,0,1,575.94,471.05Z" fill="#2f2e41"/><rect x="533.68" y="518.12" width="43.27" height="4.81" fill="#2f2e41"/><path d="M550.11,428.79s-.26-1.17,1.37-2.05a4.48,4.48,0,0,0,1.75-1.65,3.7,3.7,0,0,0,.46-2.9,4.34,4.34,0,0,1,2,3.53s.56-.06.56-1.4c0,0-.11-2,2.57-3.13a1.07,1.07,0,0,0,.48-.67s1.05,2.87,2.4,3.71a4.5,4.5,0,0,1,1.34,1.23,4.84,4.84,0,0,1,1.05,3.33Z" fill="#ccc"/><path d="M553.16,428.8s-.48-1.13,1.09-1.69a1.78,1.78,0,0,0,.67-1.67s.84.19.81,2.07a.76.76,0,0,0,.37.65c.15.09.26.27.16.64Z" fill="#e6e6e6"/><path d="M529.13,428.79s-.37-1,2.31-2.46c0,0,.9-.33.78-3.69a4.83,4.83,0,0,1,3.22,3.08,5,5,0,0,1,3.38-5.2,3.88,3.88,0,0,0,2.46,3.69,4.21,4.21,0,0,1,2.21,4.58Z" fill="#ccc"/><path d="M532,428.79s-.38-1.23,1.3-1.73c0,0,.85-.18.37-2.08a3.93,3.93,0,0,1,1.31,3.14v.67Z" fill="#e6e6e6"/><path d="M535.94,428.79a1.85,1.85,0,0,1,.39-2.21,7.64,7.64,0,0,0,.59-2.48,4,4,0,0,0,2.16,2.35,2.06,2.06,0,0,1,1.41,2.16l0,.18Z" fill="#e6e6e6"/><path d="M556.26,428.8a1.61,1.61,0,0,1,.46-.92.59.59,0,0,0,.21-.53c-.09-.83-.13-2.75,1.34-3.7a2,2,0,0,0,1.84,2.57s1.74.34,1.41,2.58Z" fill="#e6e6e6"/><path d="M570.74,428.79s-.42-1.33,1.53-2.26a3.17,3.17,0,0,0,1.7-1.87,2.82,2.82,0,0,0-.16-2.24,3.1,3.1,0,0,1,2.24,3.46,1.41,1.41,0,0,0,1.32-1.41,3.84,3.84,0,0,1,.24-1c.39-1,1.35-3,2.91-3.29A4.06,4.06,0,0,0,581,423a3.79,3.79,0,0,0,1.68,1.49c1.08.51,3.13,1.83,2.2,4.35Z" fill="#ccc"/><path d="M573.51,428.8a1.91,1.91,0,0,1,1.2-1.93,1.16,1.16,0,0,0,.39-1.75A1.34,1.34,0,0,1,575,425a3.81,3.81,0,0,1,1.84,3.14s1.39.45,1.09-2.13c0,0-.39-1.89.77-2.34a3.1,3.1,0,0,0,1.8,2.93s1.58.21,1.09,2.22Z" fill="#e6e6e6"/><path d="M606,433.15a47.06,47.06,0,0,1-47.07,47.07H555A47.06,47.06,0,0,1,508,433.15Z" fill="#0071f2"/><path d="M606,433.15a47.06,47.06,0,0,1-47.07,47.07H555a46.94,46.94,0,0,1-32.44-13c13.91,1.85,49.47,4.07,55.47-20.47l1.73-13.64Z" opacity="0.3"/><path d="M519.52,442.07a8.82,8.82,0,0,0-.94,7.5,10.64,10.64,0,0,0,5.32,6.26,24.45,24.45,0,0,0,7.9,2.62,8,8,0,0,0,8.78-6.56,14.16,14.16,0,0,0,0-5,7.8,7.8,0,0,0-4-5.38c-2.87-1.54-7.95-3.55-13.24-2.22A6.36,6.36,0,0,0,519.52,442.07Z" fill="#fff" opacity="0.3"/><rect x="544.86" y="443.55" width="21.35" height="4.14" rx="1.61" fill="none" stroke="#000" stroke-miterlimit="10" stroke-width="3" opacity="0.3"/><rect x="505.17" y="428.79" width="104.42" height="6.37" rx="2.48" fill="#2f2e41"/><path d="M578.06,415.26a5.16,5.16,0,0,1-.06.79,4.61,4.61,0,0,1-4.52,3.8H537.93a4.59,4.59,0,0,1-3.25-7.83,4.44,4.44,0,0,1,1-.76,4.54,4.54,0,0,1,2.23-.58h35.55A4.58,4.58,0,0,1,578.06,415.26Z" fill="#0071f2"/><path d="M578,416.05a4.61,4.61,0,0,1-4.52,3.8H537.93a4.59,4.59,0,0,1-3.25-7.83,4.44,4.44,0,0,1,1-.76,4.43,4.43,0,0,0,3.79,4.79Z" fill="#fff" opacity="0.3"/><path d="M597.85,430.24H515.34v-5.9a4.63,4.63,0,0,1,4.62-4.62h73.27a4.63,4.63,0,0,1,4.62,4.62ZM515.57,430h82.06v-5.68a4.4,4.4,0,0,0-4.4-4.39H520a4.4,4.4,0,0,0-4.39,4.39Z" fill="#2f2e41"/><path d="M409.08,528.09l-2.79,21.06,27.59.88s2-5.3-5.72-6.41a5.13,5.13,0,0,1-4.34-4.22,35.63,35.63,0,0,1,.37-10.73Z" fill="#0071f2"/><path d="M409.08,528.09l-2.79,21.06,27.59.88s2-5.3-5.72-6.41a5.13,5.13,0,0,1-4.34-4.22,35.63,35.63,0,0,1,.37-10.73Z" opacity="0.2"/><polygon points="406.29 549.15 406.29 553.33 433.74 553.41 433.88 550.03 406.29 549.15" fill="#2f2e41"/><polygon points="406.29 549.15 406.29 553.33 433.74 553.41 433.88 550.03 406.29 549.15" opacity="0.2"/><rect x="488.19" y="382.07" width="0.29" height="58.9" transform="translate(-8.45 812.8) rotate(-79.05)" fill="#2f2e41"/><path d="M438.76,370h22.85l4.86,9.86s-22.57,4.11-31.91,2.13c0,0,2-5.56,2.14-6.56A12,12,0,0,1,438.76,370Z" fill="#f9b499"/><path d="M451.6,320.09s-1.78,12.51-1.31,15.14L447.35,323A13.11,13.11,0,0,0,451.6,320.09Z" fill="#2f2e41"/><path d="M419.57,321.19,429.48,348l12.62,9.84,4.41-8.52s2.3-21.56-.62-25.83c0,0-7.9,2.46-11.25-9,0,0-5.3,11.92-10.81,8.35A13.28,13.28,0,0,0,419.57,321.19Z" fill="#f9b499"/><path d="M445.69,363.84s-8.22,4.19-9,11.56c0,0-4.8,17.77-11.35,21.32a4.58,4.58,0,0,1-2.77.58s-14.68-.15-33.76-16.44l4.54-9.17a68.23,68.23,0,0,0,7-25.85,60.57,60.57,0,0,0,.05-7.14l14.95-17.87a27.4,27.4,0,0,1,4.2.36,130.73,130.73,0,0,1,10.79,21.65,12.14,12.14,0,0,0,7.5,7,5.49,5.49,0,0,0,3.33-.09c3.21-1.17,8.13-6.06,3.48-26.06a9.85,9.85,0,0,0,2.68-.62S457.94,356.37,445.69,363.84Z" fill="#0071f2"/><path d="M444.67,323.65s-6.53,2-5.06,5.1c0,0-6.56-3.51-5-14.31C434.64,314.44,436.37,323.68,444.67,323.65Z" fill="#f7a48b"/><path d="M439.53,350a12.53,12.53,0,0,0,.3-2.58,24.87,24.87,0,0,0-.88-4.25,12.94,12.94,0,0,1,1.17,4.25,5.88,5.88,0,0,1-.59,2.58Z" fill="#f7a48b"/><ellipse cx="445.69" cy="306.9" rx="16.9" ry="11.48" transform="translate(65.61 692.09) rotate(-79.93)" fill="#f9b499"/><path d="M408.49,322l11.45-13.94a18.82,18.82,0,0,0,4.55-9s3.43-14.59,14.78-16.88a9.54,9.54,0,0,1,5.77.67c4.21,1.89,12.62,6.54,13.06,13.57,0,0,.72,3.71-3.69.43a3.22,3.22,0,0,0-3.58-.21c-3.5,2.07-10.72,6.9-14.31,13.43,0,0-6.09,16.91-12.76,12.74a9.9,9.9,0,0,0-3.53-1.47A21.23,21.23,0,0,0,408.49,322Z" fill="#2f2e41"/><path d="M415.37,320.83s11.17,17.76,3.25,21.43l2.84,33.14s26.37,11.77,33.27,21.31c0,0,8.51,9.1,6.6,12.92a4.22,4.22,0,0,1-4.55,1.76s-2.44,1.81-4.3.1c0,0-4.65,3.13-4.51-1.86l.44-8.22-32.14-13.06s-5.29-1-6.9-6.17l-7.49-32.29s-6.46-24.66,6.61-27.89A16,16,0,0,1,415.37,320.83Z" fill="#f9b499"/><path d="M413.63,332.28a23.05,23.05,0,0,1,3.73,5.94,21.29,21.29,0,0,1,1,3c.07.33.16.7.22,1-.18-.42-.34-.89-.52-1.31a58.71,58.71,0,0,0-4.47-8.67Z" fill="#f7a48b"/><path d="M416.12,377.84a5.71,5.71,0,0,1,4.57-2.48,6.51,6.51,0,0,1,.77,0l-.37.09a11.6,11.6,0,0,0-5,2.35Z" fill="#f7a48b"/><ellipse cx="482.68" cy="377.58" rx="10.21" ry="23.38" transform="translate(-1.93 752.68) rotate(-75.77)" fill="#e1e1e2"/><path d="M466.47,371.79s4.7-6.05,20.11.56c0,0,14.38,5.87,10.42,12.33,0,0,.24-5-6.19-8.44C490.81,376.24,476.3,366.68,466.47,371.79Z" fill="#9ea0a3"/><rect x="473.81" y="402.73" width="9.25" height="11.89" rx="3.6" transform="translate(73.51 -72.94) rotate(9.44)" fill="#0071f2"/><rect x="487.52" y="407.47" width="7.36" height="9.46" rx="2.86" transform="translate(74.26 -74.98) rotate(9.44)" fill="#0071f2"/><rect x="499.15" y="408.68" width="7.36" height="11.66" rx="2.86" transform="translate(74.79 -76.86) rotate(9.44)" fill="#0071f2"/><g opacity="0.3"><rect x="473.81" y="402.73" width="9.25" height="11.89" rx="3.6" transform="translate(73.51 -72.94) rotate(9.44)" fill="#fff"/><rect x="487.52" y="407.47" width="7.36" height="9.46" rx="2.86" transform="translate(74.26 -74.98) rotate(9.44)" fill="#fff"/><rect x="499.15" y="408.68" width="7.36" height="11.66" rx="2.86" transform="translate(74.79 -76.86) rotate(9.44)" fill="#fff"/></g><path d="M476.76,368.35a3.84,3.84,0,0,1,2.11-3.33s2.86-3.24,5.36-1.48c0,0,3.67,1.91-.59,5.14a6.72,6.72,0,0,1-5.2,1.71A2,2,0,0,1,476.76,368.35Z" fill="#f9b499"/><path d="M430.48,432.56c-12.33-3.57-27.28,3.49-27.28,3.49-11.59-2.2-26.12,3.82-26.12,3.82-2.09.81-3.14,1.8-3.57,2.8-6.71-18.28-6.08-30.94-6.08-30.94-.26-20.94,21.39-30.87,21.39-30.87,19.08,16.29,33.76,16.44,33.76,16.44a4.58,4.58,0,0,0,2.77-.58c.77,3.45-.3,7.46-1.08,9.72a6.42,6.42,0,0,0-.1,3.88Z" fill="#2f2e41"/><path d="M408.05,479.5,399,528.67c-4-.29-12.92-2-12.92-2l-.15-20.26c-1.46-21.43,2.94-33.17,2.94-33.17-4.24-8-9.16-24.27-9.19-24.39,9.87.38,25.34-8.2,25.34-8.2l3.08,21.69C410.25,470.48,408.05,479.5,408.05,479.5Z" fill="#f9b499"/><path d="M385,526.59l-1.91,22.49,27.6.88s2.35-6.31-8.07-6.61c0,0-5-1.21-2.94-14.71Z" fill="#0071f2"/><polygon points="383.1 549.08 383.1 553.26 410.54 553.33 410.69 549.96 383.1 549.08" fill="#2f2e41"/><path d="M410.92,528.09s-1.55-46.83,4.47-54.61l-9.1-32.83,17.61-4.89,5,5.1,5.81,26.94a10.31,10.31,0,0,1,0,4.32l-12.07,56.55Z" fill="#f9b499"/><path d="M382.56,384.68c10.11,12.77,26.4,23.32,42.93,16.6a29.85,29.85,0,0,1-3.65,1.29c-.7.19-1.56.4-2.27.53-14.66,2.82-28.6-7.22-37-18.42Z" opacity="0.2"/><path d="M410.85,397.33a37.13,37.13,0,0,1-4.56,4.9,37,37,0,0,1,4.56-4.9Z" opacity="0.2"/><path d="M400.29,425.93a91.92,91.92,0,0,1,2.91,10.12,92.86,92.86,0,0,1-2.91-10.12Z" opacity="0.2"/><path d="M406.29,422.41c-.46,2.69-2,5.58-4.54,6.8a13.06,13.06,0,0,0,4.54-6.8Z" opacity="0.2"/><path d="M378.14,397.33a10.79,10.79,0,0,1,3.6.87,19.71,19.71,0,0,1,5,3l1.2,1.06c.57.57,1.31,1.29,1.83,1.91a31.34,31.34,0,0,1,2,2.5c-.67-.77-1.39-1.64-2.11-2.37-.54-.6-1.29-1.29-1.88-1.85l-1.19-1c-2.46-1.92-5.26-3.68-8.4-4.12Z" opacity="0.2"/><path d="M381.19,392.16a45.39,45.39,0,0,1,3.74,6.35,44.43,44.43,0,0,1-3.74-6.35Z" opacity="0.2"/><ellipse cx="437.04" cy="308.24" rx="2.42" ry="3.3" fill="#f9b499"/><path d="M434,437.39c-.6,1.88-2.88,3.8-9.63,3.95L405,440.6s-15.47,8.58-25.34,8.2a12.36,12.36,0,0,1-2.51-.34,5.08,5.08,0,0,1-3.65-3.26,3.36,3.36,0,0,1,0-2.53c.43-1,1.48-2,3.57-2.8,0,0,14.53-6,26.12-3.82,0,0,14.95-7.06,27.28-3.49l1.2.39A3.6,3.6,0,0,1,434,437.39Z" fill="#0071f2"/><rect x="109.93" y="338.78" width="1.32" height="33.81" transform="translate(-144.77 84.52) rotate(-26.01)" fill="#2f2e41"/><path d="M261.85,377.3l21.06-2.78a1.2,1.2,0,0,1,1.31,1.06h0a1.2,1.2,0,0,1-1.09,1.32l-21.28,1.74Z" fill="#2f2e41"/><polygon points="218.77 478.62 246.88 478.62 242.33 459.44 218.77 478.62" fill="#2f2e41"/><polygon points="218.77 478.62 246.88 478.62 242.33 459.44 218.77 478.62" opacity="0.2"/><polygon points="134.99 445.63 153.28 445.63 154.47 449.71 137.07 449.71 134.99 445.63" fill="#9ea0a3"/><polygon points="143.54 467.02 169.47 467.02 170.99 470.55 144.86 470.55 143.54 467.02" fill="#9ea0a3"/><polygon points="161.98 501.37 186.11 530.73 144.73 579.75 151.41 579.75 189.91 534.12 225.3 579.75 231.91 579.75 192.71 530.73 217.59 501.37 209.73 501.37 189.49 526.33 169.47 501.37 161.98 501.37" fill="#c2c4c6"/><polygon points="196.21 501.37 220.9 530.73 181.36 579.75 188.32 579.75 225.3 535.71 262.38 579.75 267.67 579.75 227.94 531.17 249.21 506.58 248.35 501.37 244.27 501.37 224.51 526.9 203.75 501.37 196.21 501.37" fill="#c2c4c6"/><polygon points="282.99 507.98 289.59 519.72 300.43 515.56 296.35 500.34 282.99 507.98" fill="#f9b499"/><rect x="258.62" y="544.67" width="13.8" height="19.08" fill="#f9b499"/><rect x="144.72" y="489.92" width="53.72" height="11.45" fill="#e1e1e2"/><path d="M161.73,478.62h85.15a0,0,0,0,1,0,0v11.3a0,0,0,0,1,0,0H152.94a0,0,0,0,1,0,0v-2.51A8.79,8.79,0,0,1,161.73,478.62Z" fill="#fff"/><rect x="198.44" y="489.92" width="53.72" height="11.45" fill="#9ea0a3"/><path d="M144.86,406.7l-29.35,1.39,5,24h6.21s15.16,41.33,21.59,57.87h6.2l-21.83-57.87H149.5S145.6,416.53,144.86,406.7Z" fill="#e1e1e2"/><polygon points="115.51 408.09 110.59 408.09 115.51 432.09 120.47 432.09 115.51 408.09" fill="#9ea0a3"/><path d="M213.74,379.89l57.46,2.54a1.11,1.11,0,0,1,1.07,1.12h0a1.12,1.12,0,0,1-1.12,1.12h-4.41a1.79,1.79,0,0,0-1.31.56L260.89,390a3.22,3.22,0,0,1-2.32,1l-28-1a3.21,3.21,0,0,1-2.17-.84l-8.82-6.27a1.8,1.8,0,0,0-1.27-.48l-4.62.12a1.31,1.31,0,0,1-1.34-1.3h0A1.31,1.31,0,0,1,213.74,379.89Z" fill="#e1e1e2"/><path d="M237.73,381s-1.57-2.58,2.4-4.93c0,0,4.25-4,5.87-1a21.54,21.54,0,0,1,2.23,6.43Z" fill="#0071f2"/><path d="M249.67,371.76l1.38,9.66,11.16.61s1.11-10.27-4.47-11.15Z" fill="#0071f2"/><g opacity="0.3"><path d="M237.73,381s-1.57-2.58,2.4-4.93c0,0,4.25-4,5.87-1a21.54,21.54,0,0,1,2.23,6.43Z" fill="#fff"/><path d="M249.67,371.76l1.38,9.66,11.16.61s1.11-10.27-4.47-11.15Z" fill="#fff"/></g><path d="M221.48,384.09a23.78,23.78,0,0,0-8.8,8.51l-17.17,19.26L191.25,422l6.9,10.13,4.48-5.93,19.54-30.32s17.52,3.22,21.48-1.91c0,0,4-5,3.14-8.65a1.51,1.51,0,0,0-2.56-.67,23.82,23.82,0,0,0-3.81,5.65l-11.3-.74S226.18,387.47,221.48,384.09Z" fill="#f9b499"/><path d="M205.82,436.4a11.67,11.67,0,0,1-2.54,3.91s-8.56,14-36.35,24.56a4.74,4.74,0,0,1-2,.22c-2.15-.19-5.58-1.71-8.06-8.7,0,0-9.91-27.24-12-49.69a134.53,134.53,0,0,1-12.22-23.06s5.91-10.12,11.78-12l13.28-2.44,15.68-.89s2.39-3.47,4.84-1.76c0,0,11.38,8.67,17.35,17.65a17.51,17.51,0,0,1,2.88,8.23c.3,3.61.06,9.15-2.21,16.64,0,0-2.71,3.22,2.31,10.13l5.91,10.13A6.68,6.68,0,0,1,205.82,436.4Z" fill="#0071f2"/><ellipse cx="166.93" cy="343.98" rx="13.48" ry="20.08" transform="translate(-119.53 90.74) rotate(-22.63)" fill="#f9b499"/><path d="M135.61,354.88s-5.43,9.1,5.73,10.57c0,0,4.26,3.82,8.37-2.94,0,0,14,3.72,7.92-7.81,0,0-6.92-3.12-2.21-10.72a9.21,9.21,0,0,0,1.41-8.07s5.35-.41,7.11-3.19c0,0,5.29,1.46,5.58-4a9,9,0,0,0,5.6,2.91,29.28,29.28,0,0,1,6.4,16s1.07,9.7-5.47,14.15a25,25,0,0,0,7.64,0,4.26,4.26,0,0,0,1.74-7.64,8.86,8.86,0,0,0-1.52-.91s-2.35-1.62-.66-3c0,0,3.63-1.17-.13-6.28,0,0-3.34-3.35-2.89-7.17a4.66,4.66,0,0,1,2.21-3.35,4.24,4.24,0,0,0,1.69-2.15.88.88,0,0,0-1-1.17c-1.89.41-5.19.77-6.3-1.39,0,0-4.08-12.91-11.86-6.31,0,0-6.31-6.16-11.89,3.38,0,0-9.54-.74-11,13.35,0,0,.44,2.3-3.47,4a7.13,7.13,0,0,1-1.18.4C136.36,343.79,132.85,345.32,135.61,354.88Z" fill="#2f2e41"/><path d="M157.78,355s2.93,5-.08,14.18c0,0,11.66,13.16,18.35,14.44a1.8,1.8,0,0,0,2.12-1.56c.24-2.09-.19-6.27-4.84-12.72l.32-6.46S166.22,365.93,157.78,355Z" fill="#f9b499"/><path d="M173.65,362.87l-.32,6.46s-10-2.31-12-10.43C161.31,358.9,167.22,364.69,173.65,362.87Z" fill="#f7a48b"/><path d="M144.86,406.7s-9.1,29.5-15.12,16c0,0-6.9-23-7.92-47.41,0,0-11.31.88-13.36-5.13,0,0-5.23-5.52.54-12.39a1.26,1.26,0,0,1,1.37-.39c.67.25,1.28,1.16.44,4.12,0,0-1.91,6,2.49,6.6l5.71-.27a.42.42,0,0,0,.4-.48,7.39,7.39,0,0,0-1.71-3.81,2.52,2.52,0,0,0-1.28-.67,5.6,5.6,0,0,1-3.21-1.56.62.62,0,0,1,.55-1c2.62.2,10.34,1.5,13.49,9.84l5.39,13.49S138.7,398,144.86,406.7Z" fill="#f9b499"/><circle cx="102.59" cy="338.26" r="4.33" fill="#0071f2"/><circle cx="107.73" cy="349.27" r="6.39" fill="#0071f2"/><g opacity="0.3"><circle cx="102.59" cy="338.26" r="4.33" fill="#fff"/><circle cx="107.73" cy="349.27" r="6.39" fill="#fff"/></g><path d="M296.34,490.66l-20.79,10.71-1.25,36.26H254.36l-12-72.52L220,477.94a32.24,32.24,0,0,1-7.88,3.24c-33.85,8.82-47.25-16.07-47.25-16.07v0a4.74,4.74,0,0,0,2-.22c27.79-10.52,36.35-24.56,36.35-24.56a11.67,11.67,0,0,0,2.54-3.91l.48-.13,47.48-18c29.21-9.83,27.74,12,27.74,12Z" fill="#2f2e41"/><path d="M198.44,457.78A24.61,24.61,0,0,0,208.5,438.4v-.18a2.13,2.13,0,0,1,2.05.93c1.76,2.29,1.93,6.81,2,9.65,0,1.32-.05,2.63-.14,3.95,0-3.9.05-7.95-1.24-11.67a4.46,4.46,0,0,0-1.59-2.27,1.32,1.32,0,0,0-.79-.2l.17-.21a22.55,22.55,0,0,1-2.84,11,24.47,24.47,0,0,1-7.65,8.37Z" opacity="0.2"/><path d="M242.33,465.11a21.33,21.33,0,0,1,3.31-4.15,38.37,38.37,0,0,1,8.56-6.3c1.53-.85,3.2-1.61,4.8-2.32a25,25,0,0,1,3.77-1.73c5.83-2.11,11.77-1.55,13.76,5.19a12.27,12.27,0,0,1,.41,4.17c-.13,4.12-.37,12.44-.5,16.56-.25,7.37-.6,17.47-.89,24.84.12-7.39.35-17.47.52-24.85.1-4.13.34-12.43.44-16.56a12.22,12.22,0,0,0-.4-4c-1.89-6.52-7.6-6.95-13.22-4.95a24,24,0,0,0-3.77,1.68c-1.59.68-3.26,1.42-4.79,2.25a39.28,39.28,0,0,0-8.61,6.15,22,22,0,0,0-3.39,4.06Z" opacity="0.2"/><path d="M252.9,541.3s-3.37-5.27,3.08-5.86l13.65-1.19a10.49,10.49,0,0,1,4.48.28,2.36,2.36,0,0,1,1.54,2.2v6a3.26,3.26,0,0,1-3.06,3.25l-15.3.91a3.24,3.24,0,0,1-3.27-2.21Z" fill="#0071f2"/><path d="M275.55,501.37l3.71,7.93a3,3,0,0,0,3.89,1.45l15.4-6.85a3.17,3.17,0,0,0,1.87-3.16l-.71-8.69a2.27,2.27,0,0,0-3.34-1.82Z" fill="#0071f2"/><rect x="288.84" y="527.44" width="40.21" height="3.52" rx="1.37" transform="translate(-170.68 147.81) rotate(-21.23)" fill="#e6e6e6"/><rect x="255.32" y="576.62" width="40.21" height="3.52" rx="1.37" transform="translate(-13.38 6.56) rotate(-1.33)" fill="#e6e6e6"/><ellipse cx="155.65" cy="350.26" rx="3.6" ry="4.92" transform="translate(-136.12 101.71) rotate(-25.61)" fill="#f9b499"/><path d="M144.86,406.7a98.18,98.18,0,0,0,7.18-9.47,60,60,0,0,0,3.32-5.7c.41-.77.76-1.61,1.14-2.39-.29.82-.58,1.68-.94,2.48a42.86,42.86,0,0,1-4.66,8,52,52,0,0,1-6,7.05Z" opacity="0.2"/><path d="M166.93,438.39a26.51,26.51,0,0,0,17.94-6.67,26,26,0,0,0,6.38-9.76c-.22.62-.42,1.25-.66,1.86-.15.34-.44,1-.58,1.37l-.67,1.33c-.17.29-.58,1-.75,1.28s-.64,1-.83,1.23-.61.8-.91,1.18A22.59,22.59,0,0,1,182,434.5a25.18,25.18,0,0,1-15.11,3.89Z" opacity="0.2"/><path d="M192.25,430.19a15.48,15.48,0,0,1-5.76,10.73,20.83,20.83,0,0,1-4.67,2.84c-.67.28-1.5.6-2.19.82-.44.16-1.06.31-1.5.44-1,.25-2,.45-3,.6a33.05,33.05,0,0,0,5.88-1.89,21.86,21.86,0,0,0,5.25-3.15,16.82,16.82,0,0,0,6-10.39Z" opacity="0.2"/><path d="M291,534.12l-4.8-12.49s-3.53-4.7,4-5.58l7.63-2.35s4.41-2.93,9,3.08c0,0,4.38,4.11,9.89,2.94,0,0,8.16-3.08,8.6,1.17Z" fill="#2f2e41"/><path d="M256.89,576.91l-.26-13.18a1.5,1.5,0,0,0-.05-.37c-.21-.92-.91-5.27,5.67-3.73l8,.39s4.58-1.13,7,4.82a12.14,12.14,0,0,0,2.64,4.09,10.66,10.66,0,0,0,6.07,3.16s8.71-.12,7.68,4Z" fill="#2f2e41"/><path d="M93.4,533.48S74.4,454,98.86,421a5.38,5.38,0,0,1,3.58-2.16c2.87-.39,6.71,1.48,4.39,15.89a12.69,12.69,0,0,1-.42,1.72C104.73,441.68,95.33,473.57,93.4,533.48Z" fill="#0071f2"/><path d="M546.52,340.4s13-4.25,5.9-20.4a17,17,0,0,1,0-16.82s-14,4-5.9,18.61C546.52,321.79,552.83,330.12,546.52,340.4Z" fill="#e6e6e6"/><path d="M564.28,341.57s13-4.25,5.9-20.4a17.05,17.05,0,0,1,0-16.82s-14,4-5.9,18.61C564.28,323,570.59,331.3,564.28,341.57Z" fill="#e6e6e6"/><path d="M581.89,340.4s13-4.25,5.91-20.4a17,17,0,0,1,0-16.82s-14,4-5.91,18.61C581.89,321.79,588.2,330.12,581.89,340.4Z" fill="#e6e6e6"/><path d="M694.82,498.53s-4.53-19.39,15.58-18.83c0,0,1.32-24.4,30.53-16.92,0,0,5.58-20.4,21.14-5,0,0,12.14-2.74,12.53,9.64,0,0,19.06.12,19.56,12.27,0,0,2.7,5.31,11.14,5.72a8.72,8.72,0,0,1,9.18,4.36,11.57,11.57,0,0,1-.61,12.63,42.87,42.87,0,0,1-5.71,6.46s6.46-.14,5,8.81c0,0-.29,4.55-9.69,2.79,0,0,5.43,8.38-3.3,14.76C800.16,535.23,782.29,513.29,694.82,498.53Z" fill="#0071f2"/><path d="M694.82,498.53s-4.53-19.39,15.58-18.83c0,0,1.32-24.4,30.53-16.92,0,0,5.58-20.4,21.14-5,0,0,12.14-2.74,12.53,9.64,0,0,19.06.12,19.56,12.27,0,0,2.7,5.31,11.14,5.72a8.72,8.72,0,0,1,9.18,4.36,11.57,11.57,0,0,1-.61,12.63,42.87,42.87,0,0,1-5.71,6.46s6.46-.14,5,8.81c0,0-.29,4.55-9.69,2.79,0,0,5.43,8.38-3.3,14.76C800.16,535.23,782.29,513.29,694.82,498.53Z" fill="#fff" opacity="0.4"/><path d="M638.94,582.25h39.14L678,567.72,663,567s-14.25,9.84-18.8,10.28C644.23,577.26,637.77,578,638.94,582.25Z" fill="#2f2e41"/><rect x="638.94" y="582.25" width="39.19" height="3.23" fill="#e6e6e6"/><path d="M684.64,582.25h33.67l-.08-14.53L705.36,567s-12.26,9.84-16.17,10.28C689.19,577.26,683.63,578,684.64,582.25Z" fill="#2f2e41"/><rect x="684.64" y="582.25" width="33.71" height="3.23" fill="#e6e6e6"/><rect x="595.13" y="383.57" width="0.59" height="16.89" transform="translate(182.94 973.45) rotate(-88.01)" fill="#2f2e41"/><path d="M575.83,395.47c-1.79,0-3.75-.08-5.9-.22l0-.59c7.17.5,12.29.16,15.23-1a2.32,2.32,0,0,0,.32-4.17c-4.63-2.72-14-3.48-14.12-3.49l0-.59c.39,0,9.63.78,14.38,3.58a2.91,2.91,0,0,1-.41,5.22C583.29,395.05,580.08,395.47,575.83,395.47Z" fill="#2f2e41"/><path d="M645.34,351.07l14.45,10.56,44.47,15.27s5.14,5.77,20.7,5c0,0-10.28-34.64-11.89-37.87,0,0,2.64-30.53-10.42-32l-14.54-1.32H680s-1.84-4.55-6.24-2.5c0,0-5.28.57-7.19,8.51l-4.33,1.89s-11.23,4.87-16.08,21.9l-1.81,7.84A2.67,2.67,0,0,0,645.34,351.07Z" fill="#0071f2"/><path d="M645.72,351.35l-4.14,12.78L612,388.58a2.73,2.73,0,0,1-3.28.15l-2.31-1.57a5,5,0,0,0-4.06-.72c-2,.52-4.83,2.51-5.22,4.79a.48.48,0,0,0,.58.54l3.17-.87a1.7,1.7,0,0,1,.5,0,3.49,3.49,0,0,1,1.09.27l.8.33a.73.73,0,0,1,.22,1.2c-1.36,1.28-4.3,3.69-7,3.49a1,1,0,0,0-1,.89c-.11,1.42.35,3.79,4.56,3.79,0,0,2.35,3.23,5.58,1,0,0,1.44,3.3,5.71.77,0,0,5.86-5.62,10.63-6.52a23.25,23.25,0,0,0,3.3-.88c6.89-2.4,27.45-10,30-16.53l6.64-11.41-2.11-5.65Z" fill="#f9b499"/><path d="M644.83,346.15c4.07,3.38,8,7,12.36,10l.9.56-1-.46A38.62,38.62,0,0,1,651,352a68.29,68.29,0,0,1-6.21-5.81Z" opacity="0.2"/><path d="M641.58,364.13a10.42,10.42,0,0,1,6.12,8.3,14.94,14.94,0,0,0-6.12-8.3Z" fill="#f7a48b"/><path d="M643.29,372.43a9.44,9.44,0,0,1,0-7.16,25.26,25.26,0,0,0,0,7.16Z" fill="#f7a48b"/><path d="M686.1,370.66s4.15,1.46,7.56,2.6" fill="none" stroke="red" stroke-miterlimit="10"/><path d="M615,409.66l1.79-8.8a1.42,1.42,0,0,1,1.63-1.12l14.44,2.53a1.79,1.79,0,0,1,1.31,1l1.14,2.62a1.75,1.75,0,0,0,1.37,1.05l24,3.39-1,3.37L635.33,411a1.8,1.8,0,0,0-1.18.29l-3.06,2a1.78,1.78,0,0,1-1.27.28l-13.65-2.29A1.42,1.42,0,0,1,615,409.66Z" fill="#2f2e41"/><path d="M619.39,403.57c1.78,0,3.63.2,5.4.39s3.6.45,5.34.83c-1.78,0-3.62-.2-5.39-.39s-3.61-.45-5.35-.83Z" opacity="0.2"/><path d="M618.66,406.07c1.78,0,3.62.2,5.39.39s3.61.45,5.35.82c-1.78,0-3.62-.2-5.4-.39s-3.6-.45-5.34-.82Z" opacity="0.2"/><path d="M618.66,408.57c1.78,0,3.62.19,5.39.38s3.61.45,5.35.83c-1.78,0-3.62-.2-5.4-.39s-3.6-.45-5.34-.82Z" opacity="0.2"/><path d="M572.05,386.35a48.85,48.85,0,0,1-.81,4.82h0c-.08.36-.13.55-.13.55a32.46,32.46,0,0,1-.9,4.37,17.24,17.24,0,0,1-2.24,5,8.16,8.16,0,0,1-6.7,3.91,3,3,0,0,1-2.61-1.43h0a2.86,2.86,0,0,1-.3-2.37,8.3,8.3,0,0,1,1-2.06,1.74,1.74,0,0,0,.11-.18c6.38-11.31,2.59-28.52,2.59-28.52a3.62,3.62,0,0,1,2-3.78,6.3,6.3,0,0,1,2.54-.62c4.25.44,5.3,6.39,5.3,6.39.1.6.18,1.19.25,1.78a46.54,46.54,0,0,1,.32,5A54.82,54.82,0,0,1,572.05,386.35Z" fill="#0071f2"/><path d="M566.58,366a6.3,6.3,0,0,0-2.54.62l-2.27-3.31a.48.48,0,0,1,.54-.73l1.42.43a.51.51,0,0,0,.52-.16l1-1.25a.49.49,0,0,1,.86.25Z" fill="#0071f2"/><path d="M560.1,404.79,558,407.43a.25.25,0,0,1-.43-.12l-.2-1.61a.23.23,0,0,0-.2-.21l-2.13-.33a.24.24,0,0,1,0-.47l3.68-1.12h0A3,3,0,0,0,560.1,404.79Z" fill="#0071f2"/><g opacity="0.2"><path d="M566.58,366a6.3,6.3,0,0,0-2.54.62l-2.27-3.31a.48.48,0,0,1,.54-.73l1.42.43a.51.51,0,0,0,.52-.16l1-1.25a.49.49,0,0,1,.86.25Z"/><path d="M560.1,404.79,558,407.43a.25.25,0,0,1-.43-.12l-.2-1.61a.23.23,0,0,0-.2-.21l-2.13-.33a.24.24,0,0,1,0-.47l3.68-1.12h0A3,3,0,0,0,560.1,404.79Z"/></g><path d="M572.45,379.24c-3.37-.3-4.17-1.78-4.17-1.78-1.67-2.67,3.85-3.25,3.85-3.25A46.54,46.54,0,0,1,572.45,379.24Z" fill="#fff" opacity="0.3"/><path d="M572.05,386.35a48.85,48.85,0,0,1-.81,4.82h0a7.64,7.64,0,0,1-3-1.4,1.9,1.9,0,0,1,.58-3.26A7.3,7.3,0,0,1,572.05,386.35Z" fill="#fff" opacity="0.3"/><path d="M570.21,396.09a17.24,17.24,0,0,1-2.24,5h0s-3.56-1.63-2.62-4.25C565.34,396.84,565.76,394.73,570.21,396.09Z" fill="#fff" opacity="0.3"/><path d="M682.89,490c.89,16.74-4.9,77.75-4.9,77.75-7.78,6.6-17-2.41-17-2.41L656.68,488a22.73,22.73,0,0,1,1.35-9.06l7.48-20.4s6.9,10.42,26,10.57l-8.27,19.06A4.08,4.08,0,0,0,682.89,490Z" fill="#0071f2"/><path d="M675.34,489.34a27.54,27.54,0,0,1,3.74-.37,29.34,29.34,0,0,1,3.75.07,27.56,27.56,0,0,1-3.73.37,29.5,29.5,0,0,1-3.76-.07Z" opacity="0.2"/><path d="M682.83,491.72a32.13,32.13,0,0,1-2.87,2.72,29.22,29.22,0,0,1-3.15,2.38,32.05,32.05,0,0,1,2.87-2.72,31.71,31.71,0,0,1,3.15-2.38Z" opacity="0.2"/><path d="M735.2,461.77c-.77,18.08-12.44,80.7-12.44,80.7l-4.26,29.36c-3.38,5-18.2-3.52-18.2-3.52l.89-100.11c10-1.06,25.43-3.12,34-6.43Z" fill="#0071f2"/><path d="M739.93,459.24a17.16,17.16,0,0,1-4.73,2.53c-8.58,3.31-24,5.37-34,6.43-5.72.6-9.7.88-9.7.88-19.08-.15-26-10.57-26-10.57l5.72-66.35-11.44-30.53c-4.7-8.07-3.11-39.12-3.11-39.12a23.77,23.77,0,0,1,3.45-2.72c-1,3.07-.2,30.1-.2,30.1A52.57,52.57,0,0,0,675.2,349c.58-33.32,7.64-38.31,7.64-38.31h5.27c-7.19,9.69-7.19,27.74-7.19,27.74-1.32,11.45,5.43,20.11,5.43,20.11C702.5,381.89,725,381.89,725,381.89,732.15,394.22,739.93,459.24,739.93,459.24Z" fill="#2f2e41"/><path d="M689.29,344.78l-3.19,25.88s-11.78,7.85-30.57,31.63c0,0-13.07,13.21-5.43,13.8,0,0,.88,1.47,4.84,1,0,0,2.35,2.51,4.77.08,0,0,3.74,2.27,4.77-2.87l1.62-8.66s26.36-12.17,35.46-21.41a11.5,11.5,0,0,0,3.13-6.08l4.77-26.85Z" fill="#f9b499"/><path d="M661,315l1.76,5.15,3.82,1.51s1.32-9.88,7.19-13.41l-1.86-4L669.36,297Z" fill="#f7a48b"/><ellipse cx="655.26" cy="298.24" rx="14.16" ry="19.88" transform="translate(-24.42 60.86) rotate(-5.22)" fill="#f9b499"/><path d="M655.86,293.53a13.16,13.16,0,0,1-.6-5.91c-3.8,1.58-4-.7-4-.7-1.61-3.52-5.28-1.18-5.28-1.18-6.9,3.38-8.22-1.9-8.22-1.9s-4.11-9,4.11-6.76a6.34,6.34,0,0,0,5-1.9s6.16-8.66,15.56-1.47c0,0,13.06-4.11,12.91,6.6,0,0,8.89,17.5-2.37,23.59a2.84,2.84,0,0,1-2.77,0,5.9,5.9,0,0,1-2.64-4.19s-.86-3.08-2.47-3c-.6,0-1.2,0-1.8,0l-3.31-.22A4.76,4.76,0,0,1,655.86,293.53Z" fill="#2f2e41"/><circle cx="662.72" cy="297.49" r="3.82" fill="#f9b499"/><path d="M680,310.7a20.44,20.44,0,0,1-10.64,13.11,24.93,24.93,0,0,0,3.45-2.57A27.62,27.62,0,0,0,680,310.7Z" opacity="0.2"/><path d="M660.13,319.79a5.39,5.39,0,0,0,4.62,4.63,16.82,16.82,0,0,0,2.38.27,8,8,0,0,1-2.44.07,4.8,4.8,0,0,1-4.56-5Z" opacity="0.2"/><path d="M687.62,344.78s12.24,7.2,24.57,6.52l.88-7.28s2.49-30.83-10.42-32C702.65,312,687.87,312.51,687.62,344.78Z" fill="#0071f2"/><path d="M712.19,349.74a45.06,45.06,0,0,1-20.31-5.62c-.88-.5-1.75-1-2.59-1.57a61.19,61.19,0,0,0,22.9,7.19Z" opacity="0.2"/><path d="M650.1,416.09A16.24,16.24,0,0,1,652,411a16.58,16.58,0,0,1-1.91,5.09Z" fill="#f7a48b"/><path d="M654.51,417.12a13,13,0,0,1,1.32-4.65,12.86,12.86,0,0,1-1.32,4.65Z" fill="#f7a48b"/><path d="M659.71,417.2a6.76,6.76,0,0,1-.07-3.46,6.66,6.66,0,0,1,.07,3.46Z" fill="#f7a48b"/><path d="M686.1,370.66c3-.56,6.59.6,8.19,3.35a11.26,11.26,0,0,0-8.19-3.35Z" fill="#f7a48b"/></svg>